<?xml version="1.0" encoding="iso-8859-1"?>
<!-- Generator: Adobe Illustrator 19.0.0, SVG Export Plug-In . SVG Version: 6.00 Build 0)  -->
<svg version="1.1" id="Capa_1" xmlns="http://www.w3.org/2000/svg" x="0px" y="0px"
	 viewBox="0 0 512 512" style="enable-background:new 0 0 512 512;" xml:space="preserve">
<polygon style="fill:#8CA82F;" points="504.5,118.618 483.287,97.405 151.954,378.738 151.954,428.738 173.167,449.951 "/>
	<polygon style="fill:#A5C244;" points="447.932,62.049 173.167,336.814 64.068,227.716 7.5,284.284 151.954,428.738 483.287,97.405
	"/>
	<path d="M509.803,113.315l-56.568-56.569c-1.406-1.406-3.314-2.197-5.303-2.197s-3.896,0.79-5.303,2.197L173.167,326.208
	L69.372,222.413c-1.407-1.406-3.314-2.197-5.303-2.197s-3.897,0.79-5.303,2.197L2.197,278.981c-2.929,2.929-2.929,7.678,0,10.606
	l165.667,165.667c1.464,1.465,3.384,2.197,5.303,2.197s3.839-0.732,5.303-2.197l331.333-331.333
	C512.733,120.992,512.733,116.244,509.803,113.315z M173.167,439.344L18.107,284.285l45.962-45.962l103.795,103.795
	c2.929,2.929,7.678,2.929,10.606,0L447.932,72.656l45.962,45.962L173.167,439.344z"/>
	<g>
</g>
	<g>
</g>
	<g>
</g>
	<g>
</g>
	<g>
</g>
	<g>
</g>
	<g>
</g>
	<g>
</g>
	<g>
</g>
	<g>
</g>
	<g>
</g>
	<g>
</g>
	<g>
</g>
	<g>
</g>
	<g>
</g>
</svg>
