<svg viewBox="-28 0 511 512" xmlns="http://www.w3.org/2000/svg">
    <path d="m285.5 270c74.445312 0 135-60.558594 135-135s-60.554688-135-135-135c-74.441406 0-135 60.558594-135 135s60.558594 135 135 135zm0-120c-24.8125 0-45-20.1875-45-45 0-19.53125 12.578125-36.023438 30-42.238281v-17.761719c0-8.289062 6.710938-15 15-15 8.292969 0 15 6.710938 15 15v17.761719c17.421875 6.214843 30 22.707031 30 42.238281 0 8.289062-6.707031 15-15 15-8.289062 0-15-6.710938-15-15 0-8.277344-6.722656-15-15-15-8.273438 0-15 6.722656-15 15s6.726562 15 15 15c24.816406 0 45 20.1875 45 45 0 19.53125-12.578125 36.023438-30 42.238281v17.761719c0 8.289062-6.707031 15-15 15-8.289062 0-15-6.710938-15-15v-17.761719c-17.421875-6.214843-30-22.707031-30-42.238281 0-8.289062 6.710938-15 15-15 8.292969 0 15 6.710938 15 15 0 8.277344 6.726562 15 15 15 8.277344 0 15-6.722656 15-15s-6.722656-15-15-15zm0 0"/>
    <path d="m446.902344 325.097656c-11.703125-11.695312-30.902344-11.398437-42.300782.601563l-44.101562 47.402343c-28.769531 30.917969-38.320312 48.898438-64.796875 48.898438h-101.699219c-8.402344 0-15-6.601562-15-15 0-8.402344 6.597656-15 15-15h76.496094c16.570312 0 30-13.433594 30-30 0-16.570312-13.429688-30-30-30h-40.5c-1.976562-.835938-3.730469-1.574219-5.710938-2.410156-39.597656-38.988282-102.292968-40.1875-143.089843-4.191406l-41.699219 36.601562h-24c-8.402344 0-15 6.597656-15 15v120c0 8.285156 6.714844 15 15 15h270c33.050781 0 64.167969-15.558594 84-42l80.097656-106.800781c8.703125-11.398438 7.503906-27.898438-2.695312-38.101563zm0 0"/>
</svg>